# AST/ASF file generated using VICON BodyLanguage
# -----------------------------------------------
:version 1.10
:name VICON
:units
  mass 1.0
  length 0.45
  angle deg
:documentation
   .ast/.asf automatically generated from VICON data using
   VICON BodyBuilder and BodyLanguage model FoxedUp or BRILLIANT.MOD
:root
   order TX TY TZ RX RY RZ
   axis XYZ
   position 0 0 0  
   orientation 0 0 0 
:bonedata
  begin
     id 1 
     name lhipjoint
     direction 0.528046 -0.759594 0.379717 
     length 2.39752 
     axis 0 0 0  XYZ
  end
  begin
     id 2 
     name lfemur
     direction 0.34202 -0.939693 0  
     length 7.31175  
     axis 0 0 20  XYZ
    dof rx ry rz
    limits (-160.0 20.0)
           (-70.0 70.0)
           (-60.0 70.0)
  end
  begin
     id 3 
     name ltibia
     direction 0.34202 -0.939693 0   
     length 7.52482   
     axis 0 0 20   XYZ
    dof rx
    limits (-10.0 170.0)
  end
  begin
     id 4 
     name lfoot
     direction 0.0675379 -0.185559 0.980309   
     length 2.00961   
     axis -90 7.62852e-016 20   XYZ
    dof rx rz
    limits (-45.0 90.0)
           (-70.0 20.0)
  end
  begin
     id 5 
     name ltoes
     direction 1.5352e-011 -4.22286e-011 1   
     length 1.01383   
     axis -90 7.62852e-016 20   XYZ
    dof rx
    limits (-90.0 20.0)
  end
  begin
     id 6 
     name rhipjoint
     direction -0.510274 -0.769251 0.384544   
     length 2.36742  
     axis 0 0 0  XYZ 
  end
  begin
     id 7 
     name rfemur
     direction -0.34202 -0.939693 0   
     length 7.45325   
     axis 0 0 -20   XYZ
    dof rx ry rz
    limits (-160.0 20.0)
           (-70.0 70.0)
           (-70.0 60.0)
  end
  begin
     id 8 
     name rtibia
     direction -0.34202 -0.939693 0   
     length 7.49587   
     axis 0 0 -20   XYZ
    dof rx
    limits (-10.0 170.0)
 end
 begin
     id 9 
     name rfoot
     direction -0.106475 -0.292536 0.950308   
     length 2.20898  
     axis -90 -7.62852e-016 -20   XYZ
    dof rx rz
    limits (-45.0 90.0)
           (-20.0 70.0)
  end
  begin
     id 10 
     name rtoes
     direction -1.53597e-011 -4.22023e-011 1   
     length 1.10065   
     axis -90 -7.62852e-016 -20   XYZ
    dof rx
    limits (-90.0 20.0)
  end
  begin
     id 11 
     name lowerback
     direction 0.0260024 0.998026 -0.0571652   
     length 2.11214   
     axis 0 0 0   XYZ
    dof rx ry rz
    limits (-20.0 45.0)
           (-30.0 30.0)
           (-30.0 30.0)
  end
  begin
     id 12 
     name upperback
     direction 0.0216202 0.999542 -0.0211766   
     length 2.11689   
     axis 0 0 0   XYZ
    dof rx ry rz
    limits (-20.0 45.0)
           (-30.0 30.0)
           (-30.0 30.0)
  end
  begin
     id 13 
     name thorax
     direction 0.00883312 0.999944 0.00589057   
     length 2.11821   
     axis 0 0 0   XYZ
    dof rx ry rz
    limits (-20.0 45.0)
           (-30.0 30.0)
           (-30.0 30.0)
  end
  begin
     id 14 
     name lowerneck
     direction -0.059386 0.994433 0.0870401   
     length 1.81176   
     axis 0 0 0   XYZ
    dof rx ry rz
    limits (-20.0 45.0)
           (-30.0 30.0)
           (-30.0 30.0)
  end
  begin
     id 15 
     name upperneck
     direction 0.0506457 0.97328 -0.223967   
     length 1.82382   
     axis 0 0 0   XYZ
    dof rx ry rz
    limits (-20.0 45.0)
           (-30.0 30.0)
           (-30.0 30.0)
  end
  begin
     id 16
     name head
     direction 0.0205902 0.996147 -0.0852487  
     length 1.84805  
     axis 0 0 0   XYZ
    dof rx ry rz
    limits (-20.0 45.0)
           (-30.0 30.0)
           (-30.0 30.0)
  end
  begin
     id 17 
     name lclavicle
     direction 0.949493 0.303881 -0.0782325  
     length 3.60584  
     axis 0 0 0   XYZ
    dof ry rz
    limits (-20.0 10.0)
           (0.0 20.0)
  end
  begin
     id 18 
     name lhumerus
     direction 1 -4.48965e-011 1.48782e-027   
     length 4.95681   
     axis 180 -30 -90   XYZ
    dof rx ry rz
    limits (-60.0 90.0)
           (-90.0 90.0)
           (-90.0 90.0)
  end
  begin
     id 19
     name lradius
     direction 1 -4.48952e-011 2.06528e-027   
     length 3.40915   
     axis 180 -30 -90   XYZ
    dof rx
    limits (-10.0 170.0)
  end
  begin
     id 20
     name lwrist
     direction 1 -4.48964e-011 1.28021e-027   
     length 1.70457   
     axis -1.61767e-015 90 90   XYZ
    dof ry
    limits (-180.0 0.0)
 end
  begin
     id 21 
     name lhand
     direction 1 -4.49094e-011 2.54887e-027   
     length 0.616403   
     axis -1.63363e-015 90 90   XYZ
    dof rx rz
    limits (-90.0 90.0)
           (-45.0 45.0)
  end
  begin
     id 22 
     name lfingers
     direction 1 -4.49002e-011 5.11407e-027   
     length 0.49696   
     axis -3.26723e-015 90 90   XYZ
    dof rx
    limits (0.0 90.0)
  end
  begin
     id 23
     name lthumb
     direction 0.707107 -6.34998e-011 0.707107   
     length 0.713539   
     axis -90 45 -2.25915e-014   XYZ
    dof rx rz
    limits (-45.0 45.0)
           (-45.0 45.0)
  end
  begin
     id 24 
     name rclavicle
     direction -0.937751 0.334612 -0.0930482   
     length 3.46287  
     axis 0 0 0   XYZ 
    dof ry rz
    limits (-10.0 20.0)
           (-20.0 0.0)
  end
  begin
     id 25 
     name rhumerus
     direction -1 -4.48962e-011 3.59972e-027  
     length 5.352   
     axis 180 30 90   XYZ
    dof rx ry rz
    limits (-90.0 60.0)
           (-90.0 90.0)
           (-90.0 90.0)
  end
  begin
     id 26 
     name rradius
     direction -1 -4.48987e-011 -3.76925e-027   
     length 3.43721   
     axis 180 30 90   XYZ
    dof rx
    limits (-10.0 170.0)
  end
  begin
     id 27 
     name rwrist
     direction -1 -4.48943e-011 1.28112e-027   
     length 1.7186   
     axis -1.61767e-015 -90 -90   XYZ
    dof ry
    limits (-180.0 0.0)
  end
  begin
     id 28
     name rhand
     direction -1 -4.49027e-011 2.55483e-027   
     length 0.72009   
     axis -1.63363e-015 -90 -90   XYZ
    dof rx rz
    limits (-90.0 90.0)
           (-45.0 45.0)
  end
  begin
     id 29
     name rfingers
     direction -1 -4.48827e-011 5.14506e-027   
     length 0.580555   
     axis -3.26723e-015 -90 -90   XYZ
    dof rx
    limits (0.0 90.0)
  end
  begin
     id 30
     name rthumb
     direction -0.707107 -6.34936e-011 0.707107   
     length 0.833564   
     axis -90 -45 2.25915e-014   XYZ
    dof rx rz
    limits (-45.0 45.0)
           (-45.0 45.0)
  end
:hierarchy
  begin
    root lhipjoint rhipjoint lowerback
    lhipjoint lfemur
    lfemur ltibia
    ltibia lfoot
    lfoot ltoes
    rhipjoint rfemur
    rfemur rtibia
    rtibia rfoot
    rfoot rtoes
    lowerback upperback
    upperback thorax
    thorax lowerneck lclavicle rclavicle
    lowerneck upperneck
    upperneck head
    lclavicle lhumerus
    lhumerus lradius
    lradius lwrist
    lwrist lhand lthumb
    lhand lfingers
    rclavicle rhumerus
    rhumerus rradius
    rradius rwrist
    rwrist rhand rthumb
    rhand rfingers
  end

#!OML:ASF H:\Terrain\Patient Classification 1\Terrain2\Thursday\justin.ASF
:FULLY-SPECIFIED
:DEGREES
236
root -2.13332 20.4155 -13.5743 0.256021 -4.28473 -1.67111
lowerback 5.94436 -0.624404 1.32776
upperback 2.02271 -0.716097 2.53904
thorax -1.23362 -0.362503 1.91496
lowerneck -13.2059 0.745826 -7.22398
upperneck 38.2398 2.60742 1.79078
head 15.5889 0.276623 2.48389
rclavicle -2.66371e-014 1.59028e-015
rhumerus -30.7429 -14.1761 -77.1839
rradius 23.3539
rwrist -7.07743
rhand -23.9644 9.5702
rfingers 7.12502
rthumb 2.51177 -20.3948
lclavicle -2.66371e-014 1.59028e-015
lhumerus -29.982 7.74455 83.3874
lradius 33.8341
lwrist 2.7853
lhand -17.2852 23.1694
lfingers 7.12502
lthumb 8.96016 52.9591
rfemur -14.1341 -1.27029 24.9813
rtibia 33.6776
rfoot -18.1289 4.95924
rtoes 17.7333
lfemur -11.3075 0.656664 -17.7797
ltibia 31.8944
lfoot -14.9727 -13.6209
ltoes 9.04561
237
root -2.1542 20.4209 -13.5469 0.179436 -4.30276 -2.00798
lowerback 6.06808 -0.586161 1.67971
upperback 1.98478 -0.637989 2.63222
thorax -1.34597 -0.323366 1.80999
lowerneck -13.097 0.698104 -7.27134
upperneck 38.2693 2.52862 1.82264
head 15.5815 0.24108 2.49226
rclavicle -2.78299e-015 -1.59028e-014
rhumerus -31.1649 -14.0729 -77.1592
rradius 23.6062
rwrist -7.40897
rhand -23.6764 9.7922
rfingers 7.12502
rthumb 2.78989 -20.1693
lclavicle -2.78299e-015 -1.59028e-014
lhumerus -30.3699 7.77975 83.4537
lradius 33.8085
lwrist 3.25868
lhand -16.9286 24.1622
lfingers 7.12502
lthumb 9.30421 53.9368
rfemur -13.6741 -1.52295 25.3706
rtibia 33.2164
rfoot -18.0384 5.37979
rtoes 17.9933
lfemur -11.6813 0.412549 -17.3772
ltibia 32.9766
lfoot -14.5846 -13.3298
ltoes 8.15807
238
root -2.18334 20.4335 -13.5203 0.165983 -4.13654 -2.56084
lowerback 6.02848 -0.625323 2.1505
upperback 2.05343 -0.663588 2.80567
thorax -1.2557 -0.335786 1.72544
lowerneck -13.0508 0.659401 -7.27195
upperneck 38.1631 2.44949 1.85797
head 15.5208 0.217231 2.4911
rclavicle 9.93923e-016 -7.15625e-015
rhumerus -31.2171 -14.251 -77.1402
rradius 23.561
rwrist -7.51289
rhand -23.3526 10.1682
rfingers 7.12502
rthumb 3.10258 -19.789
lclavicle 9.93923e-016 -7.15625e-015
lhumerus -30.3979 7.88871 83.5527
lradius 33.4856
lwrist 3.38946
lhand -16.6967 24.9088
lfingers 7.12502
lthumb 9.52797 54.6734
rfemur -13.1903 -1.51489 26.0449
rtibia 32.6279
rfoot -17.8878 5.45404
rtoes 18.6448
lfemur -12.2546 0.272308 -16.6618
ltibia 34.3129
lfoot -14.1873 -13.1032
ltoes 5.74651
239
root -2.21496 20.443 -13.4926 0.0887693 -3.75866 -3.16726
lowerback 6.12923 -0.740069 2.57681
upperback 2.09338 -0.784279 3.05382
thorax -1.27065 -0.396028 1.75223
lowerneck -13.0982 0.681119 -7.19587
upperneck 38.1133 2.483 1.80775
head 15.5069 0.237659 2.46115
rclavicle 1.0635e-014 2.3059e-014
rhumerus -31.1399 -14.3676 -77.0963
rradius 23.3961
rwrist -7.57569
rhand -23.1162 10.2921
rfingers 7.12502
rthumb 3.33092 -19.6616
lclavicle 1.0635e-014 2.3059e-014
lhumerus -30.4398 8.10796 83.711
lradius 32.9588
lwrist 3.20279
lhand -16.5554 24.3192
lfingers 7.12502
lthumb 9.66435 54.0775
rfemur -12.6174 -1.46919 26.7995
rtibia 31.9952
rfoot -17.7447 5.14609
rtoes 19.048
lfemur -12.8818 -0.181648 -15.8156
ltibia 35.8329
lfoot -13.6048 -13.2999
ltoes 7.51317
240
root -2.24029 20.442 -13.4675 -0.0982847 -3.3593 -3.7271
lowerback 6.44322 -0.882655 3.01031
upperback 2.13298 -0.928611 3.32402
thorax -1.40464 -0.468816 1.80418
lowerneck -13.379 0.677352 -7.39698
upperneck 38.218 2.53417 1.90486
head 15.6198 0.238663 2.55491
rclavicle 3.18055e-015 1.59028e-014
rhumerus -31.1154 -14.1491 -77.0339
rradius 23.367
rwrist -7.68842
rhand -23.2611 10.2924
rfingers 7.12502
rthumb 3.1909 -19.6635
lclavicle 3.18055e-015 1.59028e-014
lhumerus -30.4427 8.39426 83.9308
lradius 32.3822
lwrist 3.04877
lhand -17.0018 23.5754
lfingers 7.12502
lthumb 9.23359 53.3533
rfemur -11.9722 -1.74028 27.4596
rtibia 31.364
rfoot -17.6796 4.9987
rtoes 18.7082
lfemur -13.5218 -0.695569 -15.0608
ltibia 37.4986
lfoot -12.9089 -13.5871
ltoes 9.93287
241
root -2.26103 20.4503 -13.4434 -0.285768 -3.03082 -3.81633
lowerback 6.5889 -0.984289 3.05277
upperback 2.20776 -1.05459 3.43001
thorax -1.40597 -0.531679 1.90167
lowerneck -13.3625 0.655446 -7.42637
upperneck 38.1469 2.55216 1.78864
head 15.5832 0.229188 2.5109
rclavicle 1.83876e-014 -3.18055e-014
rhumerus -31.1305 -13.8255 -77.0232
rradius 23.4601
rwrist -7.89717
rhand -23.5472 10.0207
rfingers 7.12502
rthumb 2.91465 -19.9392
lclavicle 1.83876e-014 -3.18055e-014
lhumerus -30.3619 8.56248 84.1127
lradius 31.7225
lwrist 2.91896
lhand -17.6003 23.2374
lfingers 7.12502
lthumb 8.65611 53.04
rfemur -11.3731 -2.27166 27.5451
rtibia 30.7566
rfoot -17.5867 5.32213
rtoes 18.8886
lfemur -14.335 -0.709887 -14.9211
ltibia 39.3566
lfoot -12.0432 -13.5047
ltoes 6.09854
242
root -2.28317 20.4689 -13.422 -0.439509 -2.86264 -3.7303
lowerback 6.63343 -0.910215 2.97719
upperback 2.33045 -0.96468 3.3927
thorax -1.3046 -0.485834 1.89782
lowerneck -13.1889 0.558659 -7.20597
upperneck 37.9485 2.39906 1.58115
head 15.46 0.177835 2.35062
rclavicle 1.5207e-014 -5.32743e-014
rhumerus -31.132 -14.1081 -76.9936
rradius 23.5361
rwrist -8.04047
rhand -23.5822 10.0602
rfingers 7.12502
rthumb 2.88089 -19.9001
lclavicle 1.5207e-014 -5.32743e-014
lhumerus -30.1827 8.36398 84.2608
lradius 31.1129
lwrist 2.68917
lhand -17.5416 23.1822
lfingers 7.12502
lthumb 8.71275 52.9824
rfemur -10.8101 -2.76569 27.4599
rtibia 30.1672
rfoot -17.4059 5.75575
rtoes 19.4542
lfemur -15.368 -0.559585 -14.9072
ltibia 41.4399
lfoot -10.37 -13.7348
ltoes 3.82095
243
root -2.30944 20.4737 -13.4019 -0.587482 -2.62516 -4.0947
lowerback 6.67983 -0.846959 3.32085
upperback 2.49686 -0.862123 3.50028
thorax -1.16264 -0.432462 1.80781
lowerneck -13.195 0.40785 -7.33032
upperneck 37.8843 2.15764 1.72615
head 15.4397 0.0826426 2.39479
rclavicle 4.96962e-016 -4.37326e-014
rhumerus -30.9408 -14.7695 -76.8305
rradius 23.2362
rwrist -7.92091
rhand -23.6519 10.6407
rfingers 7.12502
rthumb 2.81356 -19.3205
lclavicle 4.96962e-016 -4.37326e-014
lhumerus -29.9842 7.97633 84.5268
lradius 30.7235
lwrist 2.5459
lhand -17.4806 23.1122
lfingers 7.12502
lthumb 8.7716 52.9099
rfemur -10.237 -3.20362 27.92
rtibia 29.5684
rfoot -17.2399 5.97094
rtoes 19.655
lfemur -16.5683 -0.555585 -14.2831
ltibia 43.7139
lfoot -8.14164 -14.3439
ltoes 4.1487
244
root -2.3392 20.47 -13.3794 -0.72823 -2.18506 -4.53417
lowerback 6.72446 -0.940107 3.63001
upperback 2.56842 -0.963798 3.70429
thorax -1.11366 -0.482071 1.85378
lowerneck -13.1445 0.318435 -7.72327
upperneck 37.9825 1.98781 2.12567
head 15.4751 0.00753495 2.61006
rclavicle 9.24349e-015 -1.27222e-014
rhumerus -30.8274 -14.9869 -76.6724
rradius 22.8669
rwrist -7.76279
rhand -23.7637 10.9109
rfingers 7.12502
rthumb 2.70561 -19.0517
lclavicle 9.24349e-015 -1.27222e-014
lhumerus -30.0122 7.96247 84.7085
lradius 30.3431
lwrist 2.11197
lhand -17.4589 22.9997
lfingers 7.12502
lthumb 8.79251 52.7966
rfemur -9.66661 -3.60184 28.4733
rtibia 28.972
rfoot -17.2007 6.00462
rtoes 19.9053
lfemur -17.9339 -0.599324 -13.5439
ltibia 46.1031
lfoot -5.70249 -15.0252
ltoes 4.74311
245
root -2.36641 20.478 -13.3583 -0.839508 -1.73498 -4.62083
lowerback 6.85348 -0.981681 3.75742
upperback 2.56161 -1.00204 3.6737
thorax -1.19467 -0.500987 1.75644
lowerneck -13.0804 0.187635 -7.81842
upperneck 38.0616 1.70905 2.40582
head 15.511 -0.0866587 2.70403
rclavicle 6.16232e-015 -2.38542e-015
rhumerus -31.0362 -15.4389 -76.6046
rradius 22.9707
rwrist -7.30237
rhand -23.3986 10.7163
rfingers 7.12502
rthumb 3.05812 -19.2415
lclavicle 6.16232e-015 -2.38542e-015
lhumerus -30.0869 7.96715 84.663
lradius 29.8876
lwrist 1.24849
lhand -17.1357 22.9208
lfingers 7.12502
lthumb 9.10441 52.7043
rfemur -9.15834 -4.03906 28.6204
rtibia 28.399
rfoot -17.1718 6.00701
rtoes 19.6005
lfemur -19.4419 -0.685717 -13.2221
ltibia 48.5119
lfoot -3.02499 -15.3909
ltoes 6.25785
246
root -2.38994 20.4863 -13.3389 -0.94995 -1.46149 -4.66317
lowerback 6.96649 -0.954254 3.90524
upperback 2.65506 -0.954213 3.59863
thorax -1.16446 -0.47525 1.59343
lowerneck -13.1164 0.0731346 -7.67763
upperneck 37.944 1.51751 2.35758
head 15.4758 -0.148432 2.62509
rclavicle 2.48481e-015 1.19271e-014
rhumerus -31.137 -15.9105 -76.651
rradius 23.3786
rwrist -6.85706
rhand -22.9349 10.4239
rfingers 7.12502
rthumb 3.50598 -19.5271
lclavicle 2.48481e-015 1.19271e-014
lhumerus -30.0165 7.84811 84.6078
lradius 29.5369
lwrist 0.231888
lhand -16.6361 22.6374
lfingers 7.12502
lthumb 9.58646 52.3993
rfemur -8.69 -4.54735 28.697
rtibia 27.8311
rfoot -16.8613 6.25024
rtoes 19.2864
lfemur -20.9727 -0.658607 -12.9947
ltibia 50.9137
lfoot -1.03121 -15.2152
ltoes 4.54105
247
root -2.4129 20.4853 -13.3185 -1.10019 -1.36089 -4.97032
lowerback 7.17693 -0.917603 4.25083
upperback 2.78578 -0.874129 3.65104
thorax -1.14949 -0.432928 1.45063
lowerneck -13.4284 0.00266058 -7.71541
upperneck 37.9665 1.42328 2.44996
head 15.5666 -0.181397 2.66189
rclavicle -9.34288e-015 3.10104e-014
rhumerus -31.1342 -15.6847 -76.8753
rradius 23.7095
rwrist -7.12719
rhand -23.237 10.3788
rfingers 7.12502
rthumb 3.21426 -19.5768
lclavicle -9.34288e-015 3.10104e-014
lhumerus -29.8848 7.97177 84.5615
lradius 29.1155
lwrist -0.674511
lhand -16.3789 22.3297
lfingers 7.12502
lthumb 9.83458 52.0801
rfemur -8.13772 -5.04036 29.0533
rtibia 27.2092
rfoot -16.4182 6.74677
rtoes 19.7911
lfemur -22.4929 -0.453367 -12.4471
ltibia 53.3528
lfoot 0.41952 -14.8769
ltoes 0.35028
248
root -2.43439 20.4861 -13.3041 -1.18817 -1.29754 -5.47206
lowerback 7.59147 -0.886664 4.77727
upperback 2.71527 -0.759143 3.75533
thorax -1.45569 -0.378251 1.263
lowerneck -13.7036 -0.0798146 -7.81391
upperneck 38.2169 1.26562 2.70429
head 15.7655 -0.235381 2.7756
rclavicle -2.5345e-014 4.29375e-014
rhumerus -31.4625 -15.161 -77.1074
rradius 24.0281
rwrist -7.74143
rhand -23.7711 10.3501
rfingers 7.12502
rthumb 2.69842 -19.6125
lclavicle -2.5345e-014 4.29375e-014
lhumerus -30.1 8.12633 84.4648
lradius 28.8197
lwrist -1.19378
lhand -16.0521 22.2121
lfingers 7.12502
lthumb 10.1499 51.9472
rfemur -7.59262 -5.30148 29.6533
rtibia 26.4897
rfoot -16.0853 7.06052
rtoes 20.6055
lfemur -24.2043 -0.191644 -11.6537
ltibia 55.8749
lfoot 1.78958 -14.4573
ltoes -4.81632
249
root -2.45616 20.4871 -13.2907 -1.18499 -1.27846 -6.1072
lowerback 7.87102 -0.87357 5.31234
upperback 2.60589 -0.667459 3.98209
thorax -1.72481 -0.337091 1.19739
lowerneck -13.6756 -0.109132 -7.84329
upperneck 38.346 1.21169 2.75357
head 15.8278 -0.259127 2.79732
rclavicle 9.64106e-015 1.43125e-014
rhumerus -31.6067 -14.7714 -77.2439
rradius 24.132
rwrist -8.35781
rhand -23.8802 10.3627
rfingers 7.12502
rthumb 2.59303 -19.6013
lclavicle 9.64106e-015 1.43125e-014
lhumerus -30.5016 8.36402 84.4349
lradius 28.8428
lwrist -1.92612
lhand -15.1861 22.7219
lfingers 7.12502
lthumb 10.9852 52.4145
rfemur -7.05983 -5.32797 30.4383
rtibia 25.6035
rfoot -15.8179 7.04976
rtoes 21.09
lfemur -26.053 0.221711 -10.7332
ltibia 58.5089
lfoot 2.12297 -14.7719
ltoes -7.73263
250
root -2.47884 20.491 -13.2672 -1.29688 -1.24883 -6.54688
lowerback 8.02935 -0.823548 5.71662
upperback 2.62793 -0.554199 4.11671
thorax -1.78898 -0.281392 1.10363
lowerneck -13.5277 -0.129605 -7.74356
upperneck 38.3569 1.15816 2.7008
head 15.8025 -0.272974 2.74642
rclavicle 4.77083e-015 -6.36111e-015
rhumerus -31.5075 -14.8592 -77.2746
rradius 23.9341
rwrist -8.45675
rhand -23.8701 10.4998
rfingers 7.12502
rthumb 2.6028 -19.4641
lclavicle 4.77083e-015 -6.36111e-015
lhumerus -30.7423 8.04959 84.6209
lradius 28.9197
lwrist -2.01278
lhand -15.4439 23.3552
lfingers 7.12502
lthumb 10.7366 53.0608
rfemur -6.29891 -5.7382 30.9366
rtibia 24.5661
rfoot -15.7325 7.25086
rtoes 20.388
lfemur -27.6762 0.627351 -10.0936
ltibia 61.2076
lfoot 1.97882 -14.6365
ltoes -5.00361
